<svg width="50" height="50" viewBox="0 0 50 50" fill="none" xmlns="http://www.w3.org/2000/svg">
    <g transform="matrix(1.32588,0,0,1.32588,10.3937,-12.1291)">
        <path d="M11.021,12.933C14.147,16.901 15.816,21.794 15.755,26.816L15.755,28.014L16.786,28.642C18.119,29.448 19.113,30.699 19.587,32.167C19.17,31.86 18.735,31.58 18.283,31.328L15.533,29.784L15.039,32.9C14.996,33.176 14.939,33.449 14.867,33.718L7.161,33.718C7.047,33.366 6.954,33.013 6.868,32.646L6.245,29.826L3.71,31.236C3.286,31.473 2.877,31.734 2.485,32.019C2.968,30.568 3.941,29.324 5.242,28.494L6.223,27.866L6.223,26.752C6.241,21.751 7.93,16.895 11.029,12.933L11.021,12.933ZM11.029,10C10.868,10 10.713,10.058 10.592,10.162L10.527,10.219C6.398,14.766 4.105,20.645 4.082,26.745C2.33,27.864 1.032,29.554 0.417,31.52C-0.198,33.485 -0.092,35.601 0.716,37.497C1.568,35.646 2.991,34.106 4.784,33.097C4.964,33.864 5.203,34.616 5.5,35.347C5.538,35.487 5.621,35.611 5.738,35.701C5.854,35.79 5.997,35.839 6.144,35.84L16.085,35.84C16.285,35.84 16.486,35.65 16.586,35.354C16.876,34.659 17.078,33.932 17.187,33.189C18.983,34.193 20.408,35.734 21.255,37.589C22.112,35.702 22.245,33.573 21.629,31.597C21.012,29.621 19.689,27.932 17.904,26.844C17.974,20.708 15.693,14.772 11.516,10.219C11.453,10.15 11.377,10.095 11.292,10.058C11.207,10.02 11.115,10 11.021,10L11.029,10Z" style="fill:rgb(78,168,222);fill-rule:nonzero;" />
    </g>
    <g transform="matrix(1.32588,0,0,1.32588,10.3937,-12.1291)">
        <path d="M11.021,26.16C10.471,26.16 9.934,26 9.476,25.699C9.018,25.399 8.661,24.972 8.45,24.472C8.238,23.972 8.182,23.421 8.288,22.89C8.393,22.358 8.657,21.87 9.044,21.485C9.431,21.101 9.926,20.838 10.465,20.73C11.004,20.622 11.563,20.673 12.073,20.877C12.582,21.082 13.019,21.43 13.327,21.878C13.636,22.326 13.803,22.855 13.807,23.396C13.816,23.747 13.754,24.096 13.625,24.424C13.497,24.751 13.304,25.05 13.058,25.304C12.812,25.558 12.517,25.762 12.191,25.904C11.865,26.046 11.514,26.123 11.157,26.132C11.112,26.139 11.066,26.139 11.021,26.132L11.021,26.16Z" style="fill:rgb(78,168,222);fill-rule:nonzero;" />
    </g>
    <g transform="matrix(1.32588,0,0,1.32588,10.3937,-12.1291)">
        <path d="M14.896,37.596C14.717,37.59 14.538,37.62 14.371,37.683C14.203,37.746 14.05,37.842 13.921,37.964C13.791,38.086 13.688,38.232 13.617,38.394C13.546,38.556 13.508,38.731 13.506,38.907L13.506,43.067C13.506,43.43 13.653,43.778 13.913,44.034C14.174,44.291 14.527,44.435 14.896,44.435C15.264,44.435 15.618,44.291 15.878,44.034C16.139,43.778 16.285,43.43 16.285,43.067L16.285,38.964C16.291,38.788 16.261,38.613 16.197,38.448C16.133,38.284 16.037,38.134 15.914,38.006C15.79,37.879 15.643,37.777 15.479,37.707C15.315,37.636 15.139,37.599 14.96,37.596L14.896,37.596Z" style="fill:rgb(94,96,206);fill-rule:nonzero;" />
    </g>
    <g transform="matrix(1.32588,0,0,1.32588,10.3937,-12.1291)">
        <path d="M7.161,37.596C6.979,37.586 6.797,37.613 6.625,37.674C6.454,37.736 6.296,37.83 6.163,37.953C6.029,38.075 5.922,38.222 5.847,38.387C5.773,38.551 5.733,38.728 5.729,38.907L5.729,43.067C5.729,43.43 5.875,43.778 6.136,44.034C6.396,44.291 6.75,44.435 7.118,44.435C7.487,44.435 7.84,44.291 8.101,44.034C8.361,43.778 8.508,43.43 8.508,43.067L8.508,38.964C8.513,38.788 8.483,38.613 8.42,38.448C8.356,38.284 8.26,38.134 8.136,38.006C8.013,37.879 7.865,37.777 7.701,37.707C7.538,37.636 7.361,37.599 7.183,37.596L7.161,37.596Z" style="fill:rgb(94,96,206);fill-rule:nonzero;" />
    </g>
    <g transform="matrix(1.32588,0,0,1.32588,10.3937,-12.1291)">
        <path d="M10.921,37.596C10.742,37.592 10.565,37.623 10.398,37.687C10.232,37.751 10.08,37.846 9.95,37.968C9.821,38.09 9.718,38.236 9.646,38.397C9.574,38.558 9.535,38.731 9.532,38.907L9.532,44.639C9.532,45.002 9.678,45.35 9.939,45.606C10.199,45.863 10.553,46.007 10.921,46.007C11.29,46.007 11.643,45.863 11.903,45.606C12.164,45.35 12.31,45.002 12.31,44.639L12.31,38.999C12.316,38.823 12.286,38.648 12.223,38.484C12.159,38.319 12.062,38.169 11.939,38.042C11.816,37.914 11.668,37.812 11.504,37.742C11.341,37.671 11.164,37.634 10.986,37.631L10.921,37.596Z" style="fill:rgb(94,96,206);fill-rule:nonzero;" />
    </g>
</svg>